<?xml version="1.0" encoding="UTF-8"?>
<svg width="22px" height="21px" viewBox="0 0 22 21" version="1.1" xmlns="http://www.w3.org/2000/svg" xmlns:xlink="http://www.w3.org/1999/xlink">
    <title>service / paypass copy</title>
    <g id="1.0-/-Эко-/-Вирт.-карта-/-25.01" stroke="none" stroke-width="1" fill="none" fill-rule="evenodd">
        <g id="320-/-Карта-/-Как-пользоваться" transform="translate(-17.000000, -466.000000)" fill="#0057B6">
            <g id="service-/-paypass-copy" transform="translate(16.000000, 464.000000)">
                <path d="M16.2214,15.9728439 C15.8824,16.3128439 15.4304,16.4998439 14.9484,16.5008439 L14.9474,16.5008439 C14.4654,16.5008439 14.0134,16.3138439 13.6724,15.9728439 C12.9694,15.2698439 12.9694,14.1258439 13.6724,13.4228439 C14.0134,13.0818439 14.4654,12.8948439 14.9474,12.8948439 L14.9484,12.8948439 C15.4304,12.8958439 15.8824,13.0828439 16.2224,13.4238439 C16.9244,14.1268439 16.9244,15.2698439 16.2214,15.9728439 L16.2214,15.9728439 Z M9.5764,15.5878439 C9.3814,15.7838439 9.1254,15.8808439 8.8694,15.8808439 C8.6144,15.8808439 8.3584,15.7838439 8.1624,15.5878439 C7.7724,15.1978439 7.7724,14.5648439 8.1624,14.1738439 L14.4234,7.9128439 C14.8144,7.5228439 15.4474,7.5228439 15.8374,7.9128439 C16.2284,8.3038439 16.2284,8.9368439 15.8374,9.3268439 L9.5764,15.5878439 Z M7.2494,8.8028439 C7.2494,7.8088439 8.0584,6.9998439 9.0524,6.9998439 C10.0464,6.9998439 10.8554,7.8088439 10.8554,8.8028439 C10.8554,9.7968439 10.0464,10.6058439 9.0524,10.6058439 C8.0584,10.6058439 7.2494,9.7968439 7.2494,8.8028439 L7.2494,8.8028439 Z M22.8854,7.5788439 C22.5724,5.9518439 21.7654,4.6448439 20.4484,3.6758439 C19.5164,2.9918439 18.4714,2.6108439 17.3264,2.5308439 C16.5494,2.4758439 15.7874,2.5768439 15.0434,2.8078439 C13.9784,3.1398439 13.0964,3.7438439 12.4554,4.6868439 C12.2864,4.9348439 12.1454,5.2008439 11.9944,5.4538439 C11.9924,5.4498439 11.9814,5.4288439 11.9724,5.4098439 C11.6064,4.6458439 11.0984,4.0058439 10.4144,3.5178439 C9.5214,2.8778439 8.5104,2.5968439 7.4384,2.5148439 C6.9184,2.4748439 6.4014,2.5168439 5.8904,2.6268439 C4.5094,2.9248439 3.3544,3.6168439 2.4404,4.7148439 C1.5784,5.7528439 1.1214,6.9638439 1.0204,8.3168439 C0.9634,9.0638439 1.0274,9.8038439 1.1844,10.5348439 C1.3744,11.4248439 1.6964,12.2638439 2.1044,13.0698439 C2.7434,14.3328439 3.5704,15.4598439 4.5044,16.5078439 C5.5584,17.6898439 6.7254,18.7448439 7.9624,19.7198439 C9.2404,20.7278439 10.5824,21.6338439 11.9614,22.4868439 C11.9954,22.5068439 12.0194,22.5038439 12.0514,22.4848439 C13.7034,21.4628439 15.3024,20.3638439 16.7964,19.1088439 C17.9734,18.1198439 19.0784,17.0548439 20.0564,15.8578439 C20.7804,14.9718439 21.4224,14.0308439 21.9344,12.9988439 C22.4894,11.8818439 22.8774,10.7128439 22.9754,9.4538439 C23.0244,8.8258439 23.0044,8.1998439 22.8854,7.5788439 L22.8854,7.5788439 Z" id="icon"></path>
            </g>
        </g>
    </g>
</svg>